<svg width="1542pt" height="263pt" viewBox="0.00 0.00 1542.00 263.00" xmlns="http://www.w3.org/2000/svg" xmlns:xlink="http://www.w3.org/1999/xlink">
<g id="graph0" class="graph" transform="scale(1 1) rotate(0) translate(4 258.8)">
<title>TimeSeriesStyled</title>
<polygon fill="white" stroke="none" points="-4,4 -4,-258.8 1537.57,-258.8 1537.57,4 -4,4"/>
<!-- t0 -->
<g id="node1" class="node">
<title>t0</title>
<path fill="lightgrey" stroke="none" d="M66.25,-36C66.25,-36 15.11,-36 15.11,-36 9.11,-36 3.11,-30 3.11,-24 3.11,-24 3.11,-12 3.11,-12 3.11,-6 9.11,0 15.11,0 15.11,0 66.25,0 66.25,0 72.25,0 78.25,-6 78.25,-12 78.25,-12 78.25,-24 78.25,-24 78.25,-30 72.25,-36 66.25,-36"/>
<text xml:space="preserve" text-anchor="middle" x="40.68" y="-13.8" font-family="Helvetica,sans-Serif" font-size="14.00">Power on</text>
</g>
<!-- t1 -->
<g id="node2" class="node">
<title>t1</title>
<path fill="lightgrey" stroke="none" d="M227.95,-36C227.95,-36 169.81,-36 169.81,-36 163.81,-36 157.81,-30 157.81,-24 157.81,-24 157.81,-12 157.81,-12 157.81,-6 163.81,0 169.81,0 169.81,0 227.95,0 227.95,0 233.95,0 239.95,-6 239.95,-12 239.95,-12 239.95,-24 239.95,-24 239.95,-30 233.95,-36 227.95,-36"/>
<text xml:space="preserve" text-anchor="middle" x="198.88" y="-13.8" font-family="Helvetica,sans-Serif" font-size="14.00">Open LCD</text>
</g>
<!-- t0&#45;&gt;t1 -->
<!-- t2 -->
<g id="node3" class="node">
<title>t2</title>
<path fill="lightgrey" stroke="none" d="M389.63,-36C389.63,-36 329.94,-36 329.94,-36 323.94,-36 317.94,-30 317.94,-24 317.94,-24 317.94,-12 317.94,-12 317.94,-6 323.94,0 329.94,0 329.94,0 389.63,0 389.63,0 395.63,0 401.63,-6 401.63,-12 401.63,-12 401.63,-24 401.63,-24 401.63,-30 395.63,-36 389.63,-36"/>
<text xml:space="preserve" text-anchor="middle" x="359.79" y="-13.8" font-family="Helvetica,sans-Serif" font-size="14.00">Close LCD</text>
</g>
<!-- t1&#45;&gt;t2 -->
<!-- t3 -->
<g id="node4" class="node">
<title>t3</title>
<path fill="lightgrey" stroke="none" d="M581.28,-36C581.28,-36 495.9,-36 495.9,-36 489.9,-36 483.9,-30 483.9,-24 483.9,-24 483.9,-12 483.9,-12 483.9,-6 489.9,0 495.9,0 495.9,0 581.28,0 581.28,0 587.28,0 593.28,-6 593.28,-12 593.28,-12 593.28,-24 593.28,-24 593.28,-30 587.28,-36 581.28,-36"/>
<text xml:space="preserve" text-anchor="middle" x="538.59" y="-13.8" font-family="Helvetica,sans-Serif" font-size="14.00">Press [i] button</text>
</g>
<!-- t2&#45;&gt;t3 -->
<!-- t4 -->
<g id="node5" class="node">
<title>t4</title>
<path fill="lightgrey" stroke="none" d="M744.92,-36C744.92,-36 686.78,-36 686.78,-36 680.78,-36 674.78,-30 674.78,-24 674.78,-24 674.78,-12 674.78,-12 674.78,-6 680.78,0 686.78,0 686.78,0 744.92,0 744.92,0 750.92,0 756.92,-6 756.92,-12 756.92,-12 756.92,-24 756.92,-24 756.92,-30 750.92,-36 744.92,-36"/>
<text xml:space="preserve" text-anchor="middle" x="715.85" y="-13.8" font-family="Helvetica,sans-Serif" font-size="14.00">Open LCD</text>
</g>
<!-- t3&#45;&gt;t4 -->
<!-- t5 -->
<g id="node6" class="node">
<title>t5</title>
<path fill="lightgrey" stroke="none" d="M952.09,-36C952.09,-36 896.3,-36 896.3,-36 890.3,-36 884.3,-30 884.3,-24 884.3,-24 884.3,-12 884.3,-12 884.3,-6 890.3,0 896.3,0 896.3,0 952.09,0 952.09,0 958.09,0 964.09,-6 964.09,-12 964.09,-12 964.09,-24 964.09,-24 964.09,-30 958.09,-36 952.09,-36"/>
<text xml:space="preserve" text-anchor="middle" x="924.2" y="-13.8" font-family="Helvetica,sans-Serif" font-size="14.00">Half-press</text>
</g>
<!-- t4&#45;&gt;t5 -->
<!-- t6 -->
<g id="node7" class="node">
<title>t6</title>
<path fill="lightgrey" stroke="none" d="M1120.79,-36C1120.79,-36 1061.1,-36 1061.1,-36 1055.1,-36 1049.1,-30 1049.1,-24 1049.1,-24 1049.1,-12 1049.1,-12 1049.1,-6 1055.1,0 1061.1,0 1061.1,0 1120.79,0 1120.79,0 1126.79,0 1132.79,-6 1132.79,-12 1132.79,-12 1132.79,-24 1132.79,-24 1132.79,-30 1126.79,-36 1120.79,-36"/>
<text xml:space="preserve" text-anchor="middle" x="1090.94" y="-13.8" font-family="Helvetica,sans-Serif" font-size="14.00">Close LCD</text>
</g>
<!-- t5&#45;&gt;t6 -->
<!-- t7 -->
<g id="node8" class="node">
<title>t7</title>
<path fill="lightgrey" stroke="none" d="M1341.21,-36C1341.21,-36 1255.05,-36 1255.05,-36 1249.05,-36 1243.05,-30 1243.05,-24 1243.05,-24 1243.05,-12 1243.05,-12 1243.05,-6 1249.05,0 1255.05,0 1255.05,0 1341.21,0 1341.21,0 1347.21,0 1353.21,-6 1353.21,-12 1353.21,-12 1353.21,-24 1353.21,-24 1353.21,-30 1347.21,-36 1341.21,-36"/>
<text xml:space="preserve" text-anchor="middle" x="1298.13" y="-13.8" font-family="Helvetica,sans-Serif" font-size="14.00">Power off → on</text>
</g>
<!-- t6&#45;&gt;t7 -->
<!-- t8 -->
<g id="node9" class="node">
<title>t8</title>
<path fill="lightgrey" stroke="none" d="M1504.07,-36C1504.07,-36 1445.93,-36 1445.93,-36 1439.93,-36 1433.93,-30 1433.93,-24 1433.93,-24 1433.93,-12 1433.93,-12 1433.93,-6 1439.93,0 1445.93,0 1445.93,0 1504.07,0 1504.07,0 1510.07,0 1516.07,-6 1516.07,-12 1516.07,-12 1516.07,-24 1516.07,-24 1516.07,-30 1510.07,-36 1504.07,-36"/>
<text xml:space="preserve" text-anchor="middle" x="1475" y="-13.8" font-family="Helvetica,sans-Serif" font-size="14.00">Open LCD</text>
</g>
<!-- t7&#45;&gt;t8 -->
<!-- real0 -->
<g id="node10" class="node">
<title>real0</title>
<polygon fill="#ffffff" stroke="#333333" points="81.37,-252 0,-252 0,-216 81.37,-216 81.37,-252"/>
<text xml:space="preserve" text-anchor="middle" x="40.68" y="-229.8" font-family="Helvetica,sans-Serif" font-size="14.00">No display</text>
</g>
<!-- real1 -->
<g id="node11" class="node">
<title>real1</title>
<polygon fill="#e6f7ee" stroke="#2e8b57" stroke-width="3" points="253.18,-254.8 144.58,-254.8 144.58,-213.2 253.18,-213.2 253.18,-254.8"/>
<text xml:space="preserve" text-anchor="middle" x="198.88" y="-238.2" font-family="Helvetica,sans-Serif" font-size="14.00">Real Live View</text>
<text xml:space="preserve" text-anchor="middle" x="198.88" y="-221.4" font-family="Helvetica,sans-Serif" font-size="14.00">(with DP2)</text>
</g>
<!-- real0&#45;&gt;real1 -->
<g id="edge9" class="edge">
<title>real0-&gt;real1</title>
<path fill="none" stroke="#2e8b57" d="M81.5,-234C96.85,-234 114.82,-234 131.98,-234"/>
<polygon fill="#2e8b57" stroke="#2e8b57" points="131.59,-237.5 141.59,-234 131.59,-230.5 131.59,-237.5"/>
<text xml:space="preserve" text-anchor="middle" x="112.97" y="-238.2" font-family="Times,serif" font-size="14.00">open</text>
</g>
<!-- virt0 -->
<g id="node19" class="node">
<title>virt0</title>
<polygon fill="#ffffff" stroke="#333333" points="81.37,-180.8 0,-180.8 0,-139.2 81.37,-139.2 81.37,-180.8"/>
<text xml:space="preserve" text-anchor="middle" x="40.68" y="-164.2" font-family="Helvetica,sans-Serif" font-size="14.00">No display</text>
<text xml:space="preserve" text-anchor="middle" x="40.68" y="-147.4" font-family="Helvetica,sans-Serif" font-size="14.00">nDP=2</text>
</g>
<!-- real0&#45;&gt;virt0 -->
<!-- real2 -->
<g id="node12" class="node">
<title>real2</title>
<polygon fill="#ffffff" stroke="#333333" points="400.47,-252 319.11,-252 319.11,-216 400.47,-216 400.47,-252"/>
<text xml:space="preserve" text-anchor="middle" x="359.79" y="-229.8" font-family="Helvetica,sans-Serif" font-size="14.00">No display</text>
</g>
<!-- real1&#45;&gt;real2 -->
<g id="edge10" class="edge">
<title>real1-&gt;real2</title>
<path fill="none" stroke="#2e8b57" d="M254.57,-234C271.78,-234 290.72,-234 307.68,-234"/>
<polygon fill="#2e8b57" stroke="#2e8b57" points="307.54,-237.5 317.54,-234 307.54,-230.5 307.54,-237.5"/>
<text xml:space="preserve" text-anchor="middle" x="285.56" y="-238.2" font-family="Times,serif" font-size="14.00">close</text>
</g>
<!-- real3 -->
<g id="node13" class="node">
<title>real3</title>
<polygon fill="#6e6e6e" stroke="#000000" stroke-width="3" points="585.89,-254.8 491.3,-254.8 491.3,-213.2 585.89,-213.2 585.89,-254.8"/>
<text xml:space="preserve" text-anchor="middle" x="538.59" y="-238.2" font-family="Helvetica,sans-Serif" font-size="14.00" fill="#ffffff">Info display</text>
<text xml:space="preserve" text-anchor="middle" x="538.59" y="-221.4" font-family="Helvetica,sans-Serif" font-size="14.00" fill="#ffffff">with [i] menu</text>
</g>
<!-- real2&#45;&gt;real3 -->
<g id="edge11" class="edge">
<title>real2-&gt;real3</title>
<path fill="none" stroke="#000000" d="M400.91,-234C423.88,-234 453.13,-234 478.67,-234"/>
<polygon fill="#000000" stroke="#000000" points="478.59,-237.5 488.59,-234 478.59,-230.5 478.59,-237.5"/>
<text xml:space="preserve" text-anchor="middle" x="442.38" y="-238.2" font-family="Times,serif" font-size="14.00">press [i]</text>
</g>
<!-- real4 -->
<g id="node14" class="node">
<title>real4</title>
<polygon fill="#6e6e6e" stroke="#000000" stroke-width="3" points="763.14,-254.8 668.56,-254.8 668.56,-213.2 763.14,-213.2 763.14,-254.8"/>
<text xml:space="preserve" text-anchor="middle" x="715.85" y="-238.2" font-family="Helvetica,sans-Serif" font-size="14.00" fill="#ffffff">Info display</text>
<text xml:space="preserve" text-anchor="middle" x="715.85" y="-221.4" font-family="Helvetica,sans-Serif" font-size="14.00" fill="#ffffff">with [i] menu</text>
</g>
<!-- real3&#45;&gt;real4 -->
<g id="edge12" class="edge">
<title>real3-&gt;real4</title>
<path fill="none" stroke="#000000" d="M587.02,-234C608.17,-234 633.31,-234 655.67,-234"/>
<polygon fill="#000000" stroke="#000000" points="655.57,-237.5 665.57,-234 655.57,-230.5 655.57,-237.5"/>
<text xml:space="preserve" text-anchor="middle" x="625.67" y="-238.2" font-family="Times,serif" font-size="14.00">open</text>
</g>
<!-- real5 -->
<g id="node15" class="node">
<title>real5</title>
<polygon fill="#6e6e6e" stroke="#000000" stroke-width="3" points="967.61,-252 880.79,-252 880.79,-216 967.61,-216 967.61,-252"/>
<text xml:space="preserve" text-anchor="middle" x="924.2" y="-229.8" font-family="Helvetica,sans-Serif" font-size="14.00" fill="#ffffff">Info display</text>
</g>
<!-- real4&#45;&gt;real5 -->
<g id="edge13" class="edge">
<title>real4-&gt;real5</title>
<path fill="none" stroke="#000000" d="M764.45,-234C795.3,-234 835.59,-234 867.86,-234"/>
<polygon fill="#000000" stroke="#000000" points="867.84,-237.5 877.84,-234 867.84,-230.5 867.84,-237.5"/>
<text xml:space="preserve" text-anchor="middle" x="820.02" y="-238.2" font-family="Times,serif" font-size="14.00">half-press</text>
</g>
<!-- real6 -->
<g id="node16" class="node">
<title>real6</title>
<polygon fill="#6e6e6e" stroke="#000000" stroke-width="3" points="1134.35,-252 1047.53,-252 1047.53,-216 1134.35,-216 1134.35,-252"/>
<text xml:space="preserve" text-anchor="middle" x="1090.94" y="-229.8" font-family="Helvetica,sans-Serif" font-size="14.00" fill="#ffffff">Info display</text>
</g>
<!-- real5&#45;&gt;real6 -->
<g id="edge14" class="edge">
<title>real5-&gt;real6</title>
<path fill="none" stroke="#000000" d="M968.91,-234C989.19,-234 1013.52,-234 1035.03,-234"/>
<polygon fill="#000000" stroke="#000000" points="1034.79,-237.5 1044.79,-234 1034.79,-230.5 1034.79,-237.5"/>
<text xml:space="preserve" text-anchor="middle" x="1015.15" y="-238.2" font-family="Times,serif" font-size="14.00">close</text>
</g>
<!-- real7 -->
<g id="node17" class="node">
<title>real7</title>
<polygon fill="#ffffff" stroke="#333333" points="1338.82,-252 1257.45,-252 1257.45,-216 1338.82,-216 1338.82,-252"/>
<text xml:space="preserve" text-anchor="middle" x="1298.13" y="-229.8" font-family="Helvetica,sans-Serif" font-size="14.00">No display</text>
</g>
<!-- real6&#45;&gt;real7 -->
<g id="edge15" class="edge">
<title>real6-&gt;real7</title>
<path fill="none" stroke="#333333" d="M1135.71,-234C1168.07,-234 1212.22,-234 1246.17,-234"/>
<polygon fill="#333333" stroke="#333333" points="1245.74,-237.5 1255.74,-234 1245.74,-230.5 1245.74,-237.5"/>
<text xml:space="preserve" text-anchor="middle" x="1188.7" y="-238.2" font-family="Times,serif" font-size="14.00">power off/on</text>
</g>
<!-- real8 -->
<g id="node18" class="node">
<title>real8</title>
<polygon fill="#6e6e6e" stroke="#000000" stroke-width="3" points="1518.41,-252 1431.59,-252 1431.59,-216 1518.41,-216 1518.41,-252"/>
<text xml:space="preserve" text-anchor="middle" x="1475" y="-229.8" font-family="Helvetica,sans-Serif" font-size="14.00" fill="#ffffff">Info display</text>
</g>
<!-- real7&#45;&gt;real8 -->
<g id="edge16" class="edge">
<title>real7-&gt;real8</title>
<path fill="none" stroke="#333333" d="M1339.25,-234C1362.97,-234 1393.33,-234 1419.22,-234"/>
<polygon fill="#333333" stroke="#333333" points="1418.88,-237.5 1428.88,-234 1418.88,-230.5 1418.88,-237.5"/>
<text xml:space="preserve" text-anchor="middle" x="1384.82" y="-238.2" font-family="Times,serif" font-size="14.00">open</text>
</g>
<!-- virt1 -->
<g id="node20" class="node">
<title>virt1</title>
<polygon fill="#e6f7ee" stroke="#2e8b57" stroke-width="3" points="253.18,-189.2 144.58,-189.2 144.58,-130.8 253.18,-130.8 253.18,-189.2"/>
<text xml:space="preserve" text-anchor="middle" x="198.88" y="-172.6" font-family="Helvetica,sans-Serif" font-size="14.00">Real Live View</text>
<text xml:space="preserve" text-anchor="middle" x="198.88" y="-155.8" font-family="Helvetica,sans-Serif" font-size="14.00">(with DP2)</text>
<text xml:space="preserve" text-anchor="middle" x="198.88" y="-139" font-family="Helvetica,sans-Serif" font-size="14.00">nDP=2</text>
</g>
<!-- virt0&#45;&gt;virt1 -->
<g id="edge17" class="edge">
<title>virt0-&gt;virt1</title>
<path fill="none" stroke="#2e8b57" d="M81.5,-160C96.85,-160 114.82,-160 131.98,-160"/>
<polygon fill="#2e8b57" stroke="#2e8b57" points="131.59,-163.5 141.59,-160 131.59,-156.5 131.59,-163.5"/>
<text xml:space="preserve" text-anchor="middle" x="112.97" y="-164.2" font-family="Times,serif" font-size="14.00">open</text>
</g>
<!-- ctrl0 -->
<g id="node28" class="node">
<title>ctrl0</title>
<polygon fill="#ffffff" stroke="#333333" points="81.37,-103.8 0,-103.8 0,-62.2 81.37,-62.2 81.37,-103.8"/>
<text xml:space="preserve" text-anchor="middle" x="40.68" y="-87.2" font-family="Helvetica,sans-Serif" font-size="14.00">No display</text>
<text xml:space="preserve" text-anchor="middle" x="40.68" y="-70.4" font-family="Helvetica,sans-Serif" font-size="14.00">nDP=2</text>
</g>
<!-- virt0&#45;&gt;ctrl0 -->
<!-- virt2 -->
<g id="node21" class="node">
<title>virt2</title>
<polygon fill="#ffffff" stroke="#333333" points="400.47,-180.8 319.11,-180.8 319.11,-139.2 400.47,-139.2 400.47,-180.8"/>
<text xml:space="preserve" text-anchor="middle" x="359.79" y="-164.2" font-family="Helvetica,sans-Serif" font-size="14.00">No display</text>
<text xml:space="preserve" text-anchor="middle" x="359.79" y="-147.4" font-family="Helvetica,sans-Serif" font-size="14.00">nDP=2</text>
</g>
<!-- virt1&#45;&gt;virt2 -->
<g id="edge18" class="edge">
<title>virt1-&gt;virt2</title>
<path fill="none" stroke="#2e8b57" d="M254.57,-160C271.78,-160 290.72,-160 307.68,-160"/>
<polygon fill="#2e8b57" stroke="#2e8b57" points="307.54,-163.5 317.54,-160 307.54,-156.5 307.54,-163.5"/>
<text xml:space="preserve" text-anchor="middle" x="285.56" y="-164.2" font-family="Times,serif" font-size="14.00">close</text>
</g>
<!-- virt3 -->
<g id="node22" class="node">
<title>virt3</title>
<polygon fill="#6e6e6e" stroke="#000000" stroke-width="3" points="585.89,-189.2 491.3,-189.2 491.3,-130.8 585.89,-130.8 585.89,-189.2"/>
<text xml:space="preserve" text-anchor="middle" x="538.59" y="-172.6" font-family="Helvetica,sans-Serif" font-size="14.00" fill="#ffffff">Info display</text>
<text xml:space="preserve" text-anchor="middle" x="538.59" y="-155.8" font-family="Helvetica,sans-Serif" font-size="14.00" fill="#ffffff">with [i] menu</text>
<text xml:space="preserve" text-anchor="middle" x="538.59" y="-139" font-family="Helvetica,sans-Serif" font-size="14.00" fill="#ffffff">nDP=2</text>
</g>
<!-- virt2&#45;&gt;virt3 -->
<g id="edge19" class="edge">
<title>virt2-&gt;virt3</title>
<path fill="none" stroke="#000000" d="M400.91,-160C423.88,-160 453.13,-160 478.67,-160"/>
<polygon fill="#000000" stroke="#000000" points="478.59,-163.5 488.59,-160 478.59,-156.5 478.59,-163.5"/>
<text xml:space="preserve" text-anchor="middle" x="442.38" y="-164.2" font-family="Times,serif" font-size="14.00">press [i]</text>
</g>
<!-- virt4 -->
<g id="node23" class="node">
<title>virt4</title>
<polygon fill="#f2f2f2" stroke="#ff8c00" stroke-width="3" points="774.42,-189.2 657.28,-189.2 657.28,-130.8 774.42,-130.8 774.42,-189.2"/>
<text xml:space="preserve" text-anchor="middle" x="715.85" y="-172.6" font-family="Helvetica,sans-Serif" font-size="14.00">Virtual LV (DP5)</text>
<text xml:space="preserve" text-anchor="middle" x="715.85" y="-155.8" font-family="Helvetica,sans-Serif" font-size="14.00">with [i] menu</text>
<text xml:space="preserve" text-anchor="middle" x="715.85" y="-139" font-family="Helvetica,sans-Serif" font-size="14.00">nDP=5</text>
</g>
<!-- virt3&#45;&gt;virt4 -->
<g id="edge20" class="edge">
<title>virt3-&gt;virt4</title>
<path fill="none" stroke="#ff8c00" d="M587.02,-160C604.65,-160 625.05,-160 644.3,-160"/>
<polygon fill="#ff8c00" stroke="#ff8c00" points="644.28,-163.5 654.28,-160 644.28,-156.5 644.28,-163.5"/>
<text xml:space="preserve" text-anchor="middle" x="625.67" y="-164.2" font-family="Times,serif" font-size="14.00">open</text>
</g>
<!-- virt5 -->
<g id="node24" class="node">
<title>virt5</title>
<polygon fill="#f2f2f2" stroke="#ff8c00" stroke-width="3" points="982.77,-180.8 865.62,-180.8 865.62,-139.2 982.77,-139.2 982.77,-180.8"/>
<text xml:space="preserve" text-anchor="middle" x="924.2" y="-164.2" font-family="Helvetica,sans-Serif" font-size="14.00">Virtual LV (DP5)</text>
<text xml:space="preserve" text-anchor="middle" x="924.2" y="-147.4" font-family="Helvetica,sans-Serif" font-size="14.00">nDP=5</text>
</g>
<!-- virt4&#45;&gt;virt5 -->
<g id="edge21" class="edge">
<title>virt4-&gt;virt5</title>
<path fill="none" stroke="#ff8c00" d="M775.7,-160C799.77,-160 827.82,-160 852.95,-160"/>
<polygon fill="#ff8c00" stroke="#ff8c00" points="852.75,-163.5 862.75,-160 852.75,-156.5 852.75,-163.5"/>
<text xml:space="preserve" text-anchor="middle" x="820.02" y="-164.2" font-family="Times,serif" font-size="14.00">half-press</text>
</g>
<!-- virt6 -->
<g id="node25" class="node">
<title>virt6</title>
<polygon fill="#6e6e6e" stroke="#000000" stroke-width="3" points="1134.35,-180.8 1047.53,-180.8 1047.53,-139.2 1134.35,-139.2 1134.35,-180.8"/>
<text xml:space="preserve" text-anchor="middle" x="1090.94" y="-164.2" font-family="Helvetica,sans-Serif" font-size="14.00" fill="#ffffff">Info display</text>
<text xml:space="preserve" text-anchor="middle" x="1090.94" y="-147.4" font-family="Helvetica,sans-Serif" font-size="14.00" fill="#ffffff">nDP=5</text>
</g>
<!-- virt5&#45;&gt;virt6 -->
<g id="edge22" class="edge">
<title>virt5-&gt;virt6</title>
<path fill="none" stroke="#ff8c00" d="M984.21,-160C1000.63,-160 1018.4,-160 1034.6,-160"/>
<polygon fill="#ff8c00" stroke="#ff8c00" points="1034.56,-163.5 1044.56,-160 1034.56,-156.5 1034.56,-163.5"/>
<text xml:space="preserve" text-anchor="middle" x="1015.15" y="-164.2" font-family="Times,serif" font-size="14.00">close</text>
</g>
<!-- virt7 -->
<g id="node26" class="node">
<title>virt7</title>
<polygon fill="#ffffff" stroke="#333333" points="1338.82,-180.8 1257.45,-180.8 1257.45,-139.2 1338.82,-139.2 1338.82,-180.8"/>
<text xml:space="preserve" text-anchor="middle" x="1298.13" y="-164.2" font-family="Helvetica,sans-Serif" font-size="14.00">No display</text>
<text xml:space="preserve" text-anchor="middle" x="1298.13" y="-147.4" font-family="Helvetica,sans-Serif" font-size="14.00">nDP=5</text>
</g>
<!-- virt6&#45;&gt;virt7 -->
<g id="edge23" class="edge">
<title>virt6-&gt;virt7</title>
<path fill="none" stroke="#333333" d="M1135.71,-160C1168.07,-160 1212.22,-160 1246.17,-160"/>
<polygon fill="#333333" stroke="#333333" points="1245.74,-163.5 1255.74,-160 1245.74,-156.5 1245.74,-163.5"/>
<text xml:space="preserve" text-anchor="middle" x="1188.7" y="-164.2" font-family="Times,serif" font-size="14.00">power off/on</text>
</g>
<!-- virt8 -->
<g id="node27" class="node">
<title>virt8</title>
<polygon fill="#f2f2f2" stroke="#ff8c00" stroke-width="3" points="1533.57,-180.8 1416.43,-180.8 1416.43,-139.2 1533.57,-139.2 1533.57,-180.8"/>
<text xml:space="preserve" text-anchor="middle" x="1475" y="-164.2" font-family="Helvetica,sans-Serif" font-size="14.00">Virtual LV (DP5)</text>
<text xml:space="preserve" text-anchor="middle" x="1475" y="-147.4" font-family="Helvetica,sans-Serif" font-size="14.00">nDP=5</text>
</g>
<!-- virt7&#45;&gt;virt8 -->
<g id="edge24" class="edge">
<title>virt7-&gt;virt8</title>
<path fill="none" stroke="#ff8c00" d="M1339.25,-160C1358.4,-160 1381.88,-160 1403.84,-160"/>
<polygon fill="#ff8c00" stroke="#ff8c00" points="1403.65,-163.5 1413.65,-160 1403.65,-156.5 1403.65,-163.5"/>
<text xml:space="preserve" text-anchor="middle" x="1384.82" y="-164.2" font-family="Times,serif" font-size="14.00">open</text>
</g>
<!-- ctrl1 -->
<g id="node29" class="node">
<title>ctrl1</title>
<polygon fill="#e6f7ee" stroke="#2e8b57" stroke-width="3" points="253.18,-112.2 144.58,-112.2 144.58,-53.8 253.18,-53.8 253.18,-112.2"/>
<text xml:space="preserve" text-anchor="middle" x="198.88" y="-95.6" font-family="Helvetica,sans-Serif" font-size="14.00">Real Live View</text>
<text xml:space="preserve" text-anchor="middle" x="198.88" y="-78.8" font-family="Helvetica,sans-Serif" font-size="14.00">(with DP2)</text>
<text xml:space="preserve" text-anchor="middle" x="198.88" y="-62" font-family="Helvetica,sans-Serif" font-size="14.00">nDP=2</text>
</g>
<!-- ctrl0&#45;&gt;ctrl1 -->
<g id="edge25" class="edge">
<title>ctrl0-&gt;ctrl1</title>
<path fill="none" stroke="#2e8b57" d="M81.5,-83C96.85,-83 114.82,-83 131.98,-83"/>
<polygon fill="#2e8b57" stroke="#2e8b57" points="131.59,-86.5 141.59,-83 131.59,-79.5 131.59,-86.5"/>
<text xml:space="preserve" text-anchor="middle" x="112.97" y="-87.2" font-family="Times,serif" font-size="14.00">open</text>
</g>
<!-- ctrl2 -->
<g id="node30" class="node">
<title>ctrl2</title>
<polygon fill="#ffffff" stroke="#333333" points="400.47,-103.8 319.11,-103.8 319.11,-62.2 400.47,-62.2 400.47,-103.8"/>
<text xml:space="preserve" text-anchor="middle" x="359.79" y="-87.2" font-family="Helvetica,sans-Serif" font-size="14.00">No display</text>
<text xml:space="preserve" text-anchor="middle" x="359.79" y="-70.4" font-family="Helvetica,sans-Serif" font-size="14.00">nDP=2</text>
</g>
<!-- ctrl1&#45;&gt;ctrl2 -->
<g id="edge26" class="edge">
<title>ctrl1-&gt;ctrl2</title>
<path fill="none" stroke="#2e8b57" d="M254.57,-83C271.78,-83 290.72,-83 307.68,-83"/>
<polygon fill="#2e8b57" stroke="#2e8b57" points="307.54,-86.5 317.54,-83 307.54,-79.5 307.54,-86.5"/>
<text xml:space="preserve" text-anchor="middle" x="285.56" y="-87.2" font-family="Times,serif" font-size="14.00">close</text>
</g>
<!-- ctrl3 -->
<g id="node31" class="node">
<title>ctrl3</title>
<polygon fill="#ffffff" stroke="#333333" points="594.06,-101 483.12,-101 483.12,-65 594.06,-65 594.06,-101"/>
<text xml:space="preserve" text-anchor="middle" x="538.59" y="-78.8" font-family="Helvetica,sans-Serif" font-size="14.00">No [i] operation</text>
</g>
<!-- ctrl2&#45;&gt;ctrl3 -->
<g id="edge27" class="edge">
<title>ctrl2-&gt;ctrl3</title>
<path fill="none" stroke="#333333" d="M400.91,-83C421.75,-83 447.75,-83 471.46,-83"/>
<polygon fill="#333333" stroke="#333333" points="471.37,-86.5 481.37,-83 471.37,-79.5 471.37,-86.5"/>
<text xml:space="preserve" text-anchor="middle" x="442.38" y="-87.2" font-family="Times,serif" font-size="14.00">press [i]</text>
</g>
<!-- ctrl4 -->
<g id="node32" class="node">
<title>ctrl4</title>
<polygon fill="#e6f7ee" stroke="#2e8b57" stroke-width="3" points="770.15,-112.2 661.55,-112.2 661.55,-53.8 770.15,-53.8 770.15,-112.2"/>
<text xml:space="preserve" text-anchor="middle" x="715.85" y="-95.6" font-family="Helvetica,sans-Serif" font-size="14.00">Real Live View</text>
<text xml:space="preserve" text-anchor="middle" x="715.85" y="-78.8" font-family="Helvetica,sans-Serif" font-size="14.00">(with DP2)</text>
<text xml:space="preserve" text-anchor="middle" x="715.85" y="-62" font-family="Helvetica,sans-Serif" font-size="14.00">nDP=2</text>
</g>
<!-- ctrl3&#45;&gt;ctrl4 -->
<g id="edge28" class="edge">
<title>ctrl3-&gt;ctrl4</title>
<path fill="none" stroke="#2e8b57" d="M594.56,-83C611.69,-83 630.76,-83 648.58,-83"/>
<polygon fill="#2e8b57" stroke="#2e8b57" points="648.56,-86.5 658.56,-83 648.56,-79.5 648.56,-86.5"/>
<text xml:space="preserve" text-anchor="middle" x="625.67" y="-87.2" font-family="Times,serif" font-size="14.00">open</text>
</g>
<!-- ctrl5 -->
<g id="node33" class="node">
<title>ctrl5</title>
<polygon fill="#e6f7ee" stroke="#2e8b57" stroke-width="3" points="978.5,-112.2 869.9,-112.2 869.9,-53.8 978.5,-53.8 978.5,-112.2"/>
<text xml:space="preserve" text-anchor="middle" x="924.2" y="-95.6" font-family="Helvetica,sans-Serif" font-size="14.00">Real Live View</text>
<text xml:space="preserve" text-anchor="middle" x="924.2" y="-78.8" font-family="Helvetica,sans-Serif" font-size="14.00">(with DP2)</text>
<text xml:space="preserve" text-anchor="middle" x="924.2" y="-62" font-family="Helvetica,sans-Serif" font-size="14.00">nDP=2</text>
</g>
<!-- ctrl4&#45;&gt;ctrl5 -->
<g id="edge29" class="edge">
<title>ctrl4-&gt;ctrl5</title>
<path fill="none" stroke="#2e8b57" d="M771.61,-83C797.94,-83 829.73,-83 857.38,-83"/>
<polygon fill="#2e8b57" stroke="#2e8b57" points="857.03,-86.5 867.03,-83 857.03,-79.5 857.03,-86.5"/>
<text xml:space="preserve" text-anchor="middle" x="820.02" y="-87.2" font-family="Times,serif" font-size="14.00">half-press</text>
</g>
<!-- ctrl6 -->
<g id="node34" class="node">
<title>ctrl6</title>
<polygon fill="#ffffff" stroke="#333333" points="1131.63,-103.8 1050.26,-103.8 1050.26,-62.2 1131.63,-62.2 1131.63,-103.8"/>
<text xml:space="preserve" text-anchor="middle" x="1090.94" y="-87.2" font-family="Helvetica,sans-Serif" font-size="14.00">No display</text>
<text xml:space="preserve" text-anchor="middle" x="1090.94" y="-70.4" font-family="Helvetica,sans-Serif" font-size="14.00">nDP=2</text>
</g>
<!-- ctrl5&#45;&gt;ctrl6 -->
<g id="edge30" class="edge">
<title>ctrl5-&gt;ctrl6</title>
<path fill="none" stroke="#2e8b57" d="M979.6,-83C998.61,-83 1019.89,-83 1038.64,-83"/>
<polygon fill="#2e8b57" stroke="#2e8b57" points="1038.44,-86.5 1048.44,-83 1038.44,-79.5 1038.44,-86.5"/>
<text xml:space="preserve" text-anchor="middle" x="1015.15" y="-87.2" font-family="Times,serif" font-size="14.00">close</text>
</g>
<!-- ctrl7 -->
<g id="node35" class="node">
<title>ctrl7</title>
<polygon fill="#ffffff" stroke="#333333" points="1338.82,-103.8 1257.45,-103.8 1257.45,-62.2 1338.82,-62.2 1338.82,-103.8"/>
<text xml:space="preserve" text-anchor="middle" x="1298.13" y="-87.2" font-family="Helvetica,sans-Serif" font-size="14.00">No display</text>
<text xml:space="preserve" text-anchor="middle" x="1298.13" y="-70.4" font-family="Helvetica,sans-Serif" font-size="14.00">nDP=2</text>
</g>
<!-- ctrl6&#45;&gt;ctrl7 -->
<g id="edge31" class="edge">
<title>ctrl6-&gt;ctrl7</title>
<path fill="none" stroke="#333333" d="M1131.99,-83C1164.48,-83 1210.49,-83 1245.69,-83"/>
<polygon fill="#333333" stroke="#333333" points="1245.67,-86.5 1255.67,-83 1245.67,-79.5 1245.67,-86.5"/>
<text xml:space="preserve" text-anchor="middle" x="1188.7" y="-87.2" font-family="Times,serif" font-size="14.00">power off/on</text>
</g>
<!-- ctrl8 -->
<g id="node36" class="node">
<title>ctrl8</title>
<polygon fill="#e6f7ee" stroke="#2e8b57" stroke-width="3" points="1529.3,-112.2 1420.7,-112.2 1420.7,-53.8 1529.3,-53.8 1529.3,-112.2"/>
<text xml:space="preserve" text-anchor="middle" x="1475" y="-95.6" font-family="Helvetica,sans-Serif" font-size="14.00">Real Live View</text>
<text xml:space="preserve" text-anchor="middle" x="1475" y="-78.8" font-family="Helvetica,sans-Serif" font-size="14.00">(with DP2)</text>
<text xml:space="preserve" text-anchor="middle" x="1475" y="-62" font-family="Helvetica,sans-Serif" font-size="14.00">nDP=2</text>
</g>
<!-- ctrl7&#45;&gt;ctrl8 -->
<g id="edge32" class="edge">
<title>ctrl7-&gt;ctrl8</title>
<path fill="none" stroke="#2e8b57" d="M1339.25,-83C1359.61,-83 1384.86,-83 1407.99,-83"/>
<polygon fill="#2e8b57" stroke="#2e8b57" points="1407.98,-86.5 1417.98,-83 1407.98,-79.5 1407.98,-86.5"/>
<text xml:space="preserve" text-anchor="middle" x="1384.82" y="-87.2" font-family="Times,serif" font-size="14.00">open</text>
</g>
</g>
</svg>